<mxfile host="Electron" modified="2022-09-24T22:09:21.699Z" agent="5.0 (Macintosh; Intel Mac OS X 10_15_7) AppleWebKit/537.36 (KHTML, like Gecko) draw.io/20.2.3 Chrome/102.0.5005.167 Electron/19.0.11 Safari/537.36" etag="7XJ0xQffTx3CRA27Xt6F" compressed="false" version="20.2.3" type="device">
  <diagram id="zHJoLA6md0Yeo67uzJwa" name="第1頁">
    <mxGraphModel dx="850" dy="559" grid="1" gridSize="5" guides="0" tooltips="1" connect="1" arrows="1" fold="1" page="1" pageScale="1" pageWidth="1169" pageHeight="827" math="0" shadow="0">
      <root>
        <mxCell id="0" />
        <mxCell id="1" parent="0" />
        <mxCell id="m3pfPtTyuK7HYTcpv6uo-1" style="edgeStyle=orthogonalEdgeStyle;rounded=1;sketch=0;orthogonalLoop=1;jettySize=auto;html=1;fontFamily=Courier New;fontSize=12;strokeWidth=2;entryX=0.5;entryY=0;entryDx=0;entryDy=0;entryPerimeter=0;exitX=0.5;exitY=1;exitDx=0;exitDy=0;" parent="1" source="m3pfPtTyuK7HYTcpv6uo-2" target="m3pfPtTyuK7HYTcpv6uo-4" edge="1">
          <mxGeometry relative="1" as="geometry">
            <mxPoint x="330" y="20" as="sourcePoint" />
            <mxPoint x="330" y="80" as="targetPoint" />
          </mxGeometry>
        </mxCell>
        <object label="" type="ENTRY_POINT" id="m3pfPtTyuK7HYTcpv6uo-2">
          <mxCell style="ellipse;fontStyle=0;fontSize=12;sketch=0;rounded=1;align=left;fontFamily=Iosevka Fixed;strokeWidth=2;shadow=0;html=0;" parent="1" vertex="1">
            <mxGeometry x="330" y="80" width="40" height="40" as="geometry" />
          </mxCell>
        </object>
        <mxCell id="Dx2b7ezfvi1oqeqgblj4-1" style="edgeStyle=orthogonalEdgeStyle;rounded=0;orthogonalLoop=1;jettySize=auto;html=1;entryX=0.5;entryY=0;entryDx=0;entryDy=0;strokeWidth=2;" parent="1" source="m3pfPtTyuK7HYTcpv6uo-4" target="m3pfPtTyuK7HYTcpv6uo-22" edge="1">
          <mxGeometry relative="1" as="geometry" />
        </mxCell>
        <object label="var twoPI = Math.PI * 2.0;&#xa;var screenSize = screen.getSize();&#xa;var height = (screenSize.height / 2) - 10;&#xa;var width = screenSize.width;&#xa;&#xa;for (var x = 0; x &lt; width; x++)&#xa;{&#xa;     y = height * Math.sin((twoPI * x) / width) + height;&#xa;     mouse.moveTo(x, y);&#xa;}" type="PROCESS" id="m3pfPtTyuK7HYTcpv6uo-4">
          <mxCell style="fontSize=12;fontStyle=0;sketch=0;rounded=0;fontFamily=Iosevka Fixed;align=left;strokeWidth=2;arcSize=7;shadow=0;html=0;spacingLeft=5;verticalAlign=top;spacingTop=0;spacing=5;" parent="1" vertex="1">
            <mxGeometry x="160" y="160" width="380" height="160" as="geometry" />
          </mxCell>
        </object>
        <object label="" type="EXIT_POINT" id="m3pfPtTyuK7HYTcpv6uo-22">
          <mxCell style="shape=sumEllipse;perimeter=ellipsePerimeter;backgroundOutline=1;fontStyle=0;fontSize=16;sketch=0;rounded=1;fontFamily=Iosevka Fixed;align=left;strokeWidth=2;shadow=0;html=0;" parent="1" vertex="1">
            <mxGeometry x="330" y="360" width="40" height="40" as="geometry" />
          </mxCell>
        </object>
        <mxCell id="UbTHWvcrtNXVTwTKfJbN-1" value="移動滑鼠在螢幕走出 sin 的軌跡" style="text;html=1;strokeColor=default;fillColor=none;align=left;verticalAlign=middle;whiteSpace=wrap;rounded=0;spacingLeft=5;strokeWidth=1;fontSize=14;movable=1;resizable=1;rotatable=1;deletable=1;editable=1;connectable=1;" parent="1" vertex="1">
          <mxGeometry x="140" y="20" width="580" height="40" as="geometry" />
        </mxCell>
        <mxCell id="UbTHWvcrtNXVTwTKfJbN-2" value="範例 2" style="rounded=0;whiteSpace=wrap;html=1;fillColor=#000000;fontColor=#FFFFFF;fontSize=18;fontStyle=1;strokeWidth=1;movable=1;resizable=1;rotatable=1;deletable=1;editable=1;connectable=1;" parent="1" vertex="1">
          <mxGeometry x="40" y="20" width="100" height="40" as="geometry" />
        </mxCell>
      </root>
    </mxGraphModel>
  </diagram>
</mxfile>
